# xmcd
#
# Track frame offsets:
#	150
#	15059
#	26136
#	40065
#	55878
#	68958
#	81951
#	96108
#	107995
#	119451
#	131551
#	145276
#
# Disc length: 2089 seconds
#
# Revision: 0
# Processed by: cddbd v1.5.2PL0 Copyright (c) Steve Scherf et al.
# Submitted via: EasyCDDAExtractor 16.0.6.1
#
DISCID=a108270c
DTITLE=Συλλογικός δίσκος - Μιά γυναίκα φεύγει-Γρ. Μπιθικώτσης
DYEAR=1970
DGENRE=Λαϊκή
TTITLE0=Μπιθικώτσης Γρηγόρης - Μιά γυναίκα φεύγει [Γρ. Μπιθικώτση-Β. Λιάκου]
TTITLE1=Μπιθικώτσης Γρηγόρης - Είκοσι πέντε χάντρες [Γρ. Μπιθικώτση]
TTITLE2=Μοσχολιού Βίκυ - Τα καραβάνια [Γρ. Μπιθικώτση]
TTITLE3=Μυτιληναίος Λευτέρης - Αμφιβολίες [Γρ. Μπιθικώτση]
TTITLE4=Γαΐτη Λουΐζα - Παρεξήγηση χωρίς εξήγηση [Γρ. Μπιθικώτση]
TTITLE5=Μπιθικώτσης Γρηγόρης - Η κουρελού [Γρ. Μπιθικώτση-Β. Λιάκου]
TTITLE6=Μπιθικώτσης Γρηγόρης - Το μεσημέρι καίει το μέτωπό σου [Γρ. Μπιθικώτση
TTITLE6=Β. Λιάκου]
TTITLE7=Μπιθικώτσης Γρηγόρης - Άνοιξε την πόρτα [Γρ. Μπιθικώτση]
TTITLE8=Μπιθικώτσης Γρηγόρης - Πόσο γελάστηκα [Γρ. Μπιθικώτση-Β. Λιάκου]
TTITLE9=Γαΐτη Λουΐζα-Γεωργούτη Βούλα - Πες μου, πού πας [Γρ. Μπιθικώτση-Β. Λιά
TTITLE9=κου]
TTITLE10=Μπιθικώτσης Γρηγόρης - Κοριτσάκι [Γρ. Μπιθικώτση]
TTITLE11=Γαΐτη Λουΐζα-Γεωργούτη Βούλα - Ζητώ να βρω παρηγοριά [Γρ.Μπιθικώτση-Β
TTITLE11=Γιαννακόπουλου]
EXTD=
EXTT0=
EXTT1=
EXTT2=
EXTT3=
EXTT4=
EXTT5=
EXTT6=
EXTT7=
EXTT8=
EXTT9=
EXTT10=
EXTT11=
PLAYORDER=
